<svg xmlns="http://www.w3.org/2000/svg"  viewBox="0 0 100 100" width="100px" height="100px"><path d="M 24.990234 16.990234 A 1.0001 1.0001 0 0 0 24.791016 17.009766 C 24.789709 17.009799 24.788416 17.009731 24.787109 17.009766 C 20.468377 17.123613 17 20.653817 17 25 L 17 43 L 17 49.029297 L 17 63.863281 A 1.0001 1.0001 0 0 0 17 64.128906 L 17 75 C 17 79.418 20.582 83 25 83 L 35.847656 83 A 1.0001 1.0001 0 0 0 36.179688 83 L 50.970703 83 L 56 83 L 75 83 C 79.418 83 83 79.418 83 75 L 83 54 L 83 49.970703 L 83 35.175781 A 1.0001 1.0001 0 0 0 83 34.847656 L 83 25 C 83 20.582 79.418 17 75 17 L 65.117188 17 A 1.0001 1.0001 0 0 0 64.990234 16.990234 A 1.0001 1.0001 0 0 0 64.861328 17 L 50.029297 17 L 47 17 L 25.117188 17 A 1.0001 1.0001 0 0 0 24.990234 16.990234 z M 27.414062 19 L 47 19 L 50.029297 19 C 52.947557 19 55.743963 20.159061 57.806641 22.222656 L 77.777344 42.193359 C 79.840039 44.256055 81 47.053736 81 49.970703 L 81 54 L 81 73.085938 L 71.5 63.585938 L 71.5 40.5 A 1.0001 1.0001 0 0 0 71.207031 39.792969 L 63.207031 31.792969 A 1.0001 1.0001 0 0 0 61.792969 31.792969 L 51 42.585938 L 27.414062 19 z M 56.931641 19 L 64.585938 19 L 81 35.414062 L 81 43.070312 C 80.48492 42.249326 79.887504 41.475394 79.191406 40.779297 L 59.220703 20.808594 C 58.525071 20.112652 57.751934 19.514891 56.931641 19 z M 67.414062 19 L 75 19 C 78.308 19 81 21.692 81 25 L 81 32.585938 L 67.414062 19 z M 24.605469 19.019531 L 50.292969 44.707031 A 1.0001 1.0001 0 0 0 51.707031 44.707031 L 62.5 33.914062 L 69.5 40.914062 L 69.5 64 A 1.0001 1.0001 0 0 0 69.792969 64.707031 L 80.542969 75.457031 A 1.0001 1.0001 0 0 0 80.953125 75.714844 C 80.648764 78.263589 78.742739 80.325235 76.271484 80.861328 A 1.0001 1.0001 0 0 0 76.207031 80.792969 L 63 67.585938 L 63 46 A 1.0001 1.0001 0 0 0 61.292969 45.292969 L 51 55.585938 L 40.707031 45.292969 A 1.0001 1.0001 0 0 0 39 46 L 39 66.585938 L 31.5 59.085938 L 31.5 36 A 1.0001 1.0001 0 0 0 31.207031 35.292969 L 19.242188 23.328125 C 19.933418 20.953901 22.052854 19.186644 24.605469 19.019531 z M 33.494141 20.994141 A 0.50005 0.50005 0 0 0 33.146484 21.853516 L 36.146484 24.853516 A 0.50005 0.50005 0 1 0 36.853516 24.146484 L 33.853516 21.146484 A 0.50005 0.50005 0 0 0 33.494141 20.994141 z M 37.994141 25.494141 A 0.50005 0.50005 0 0 0 37.646484 26.353516 L 50.146484 38.853516 A 0.50005 0.50005 0 1 0 50.853516 38.146484 L 38.353516 25.646484 A 0.50005 0.50005 0 0 0 37.994141 25.494141 z M 19 25.914062 L 29.5 36.414062 L 29.5 59.5 A 1.0001 1.0001 0 0 0 29.792969 60.207031 L 39.292969 69.707031 A 1.0001 1.0001 0 0 0 41 69 L 41 48.414062 L 50.292969 57.707031 A 1.0001 1.0001 0 0 0 51.707031 57.707031 L 61 48.414062 L 61 68 A 1.0001 1.0001 0 0 0 61.292969 68.707031 L 73.585938 81 L 56 81 L 50.970703 81 C 48.053736 81 45.256055 79.840039 43.193359 77.777344 L 22.222656 56.806641 C 20.159061 54.743963 19 51.947557 19 49.029297 L 19 43 L 19 25.914062 z M 19 55.931641 C 19.514891 56.751934 20.112652 57.525071 20.808594 58.220703 L 41.779297 79.191406 C 42.475394 79.887504 43.249326 80.48492 44.070312 81 L 36.414062 81 L 19 63.585938 L 19 55.931641 z M 58.492188 59.992188 A 0.50005 0.50005 0 0 0 58 60.5 L 58 62.5 A 0.50005 0.50005 0 1 0 59 62.5 L 59 60.5 A 0.50005 0.50005 0 0 0 58.492188 59.992188 z M 58.492188 63.992188 A 0.50005 0.50005 0 0 0 58 64.5 L 58 69.5 A 0.50005 0.50005 0 0 0 58.146484 69.853516 L 67.146484 78.853516 A 0.50005 0.50005 0 1 0 67.853516 78.146484 L 59 69.292969 L 59 64.5 A 0.50005 0.50005 0 0 0 58.492188 63.992188 z M 19 66.414062 L 33.585938 81 L 25 81 C 21.692 81 19 78.308 19 75 L 19 66.414062 z"/></svg>